<svg width="100" height="100" viewBox="0 0 100 100" fill="none" xmlns="http://www.w3.org/2000/svg">
<rect width="100" height="100" fill="#0F1012"/>
<path d="M69.9023 34C70.239 34 70.4412 34.0504 70.5088 34.1514L80.0986 56.5918L84.3164 41.0811C84.8896 38.9231 84.8896 37.3377 84.3164 36.3262C83.7432 35.2812 82.5801 34.7589 80.8271 34.7588C80.7597 34.7588 80.7256 34.6574 80.7256 34.4551C80.7256 34.2529 80.7597 34.1514 80.8271 34.1514C81.7037 34.1514 82.7492 34.1855 83.9629 34.2529C85.2103 34.2866 86.4577 34.3037 87.7051 34.3037C88.6491 34.3037 89.4253 34.2866 90.0322 34.2529C90.639 34.1855 91.3643 34.1514 92.207 34.1514C92.2742 34.1518 92.3076 34.2533 92.3076 34.4551C92.3076 34.657 92.2742 34.7584 92.207 34.7588C90.9596 34.7588 89.7454 35.2812 88.5654 36.3262C87.3853 37.3377 86.5249 38.8047 85.9854 40.7266L79.0059 65.7119C78.972 65.8467 78.7863 65.9141 78.4492 65.9141C78.1461 65.914 77.961 65.8466 77.8936 65.7119L77.2051 64.0889C77.2749 64.0425 77.3453 63.9928 77.4131 63.9355C77.8223 63.5894 78.047 63.1498 78.1484 62.7412L78.1465 62.7402C78.2573 62.3024 78.318 61.4984 77.7012 60.8125L77.7031 60.8115C77.6925 60.7996 77.6797 60.789 77.6689 60.7773C77.6554 60.7629 77.6431 60.7467 77.6289 60.7324L77.627 60.7334C77.2286 60.3255 76.6863 60.0889 76.1006 60.0889H76.0488L75.998 60.0918C75.8409 60.1004 75.6807 60.106 75.5176 60.1133L72.0127 51.8555C72.9895 49.3211 73.7637 47.4269 74.3379 46.165L74.3418 46.1553L74.3467 46.1455C74.4078 46.007 74.4651 45.8503 74.5078 45.6787L74.5068 45.6777C74.6185 45.2337 74.6339 44.7104 74.4395 44.1787L74.4336 44.1621L74.4277 44.1465L74.3584 43.9854C74.183 43.6108 73.9 43.247 73.4814 42.9805C73.0174 42.685 72.5301 42.5998 72.1338 42.5996H72.1328C71.6253 42.5997 71.1595 42.7415 70.7598 42.9688L70.7471 42.9756L70.7344 42.9834C70.3963 43.1825 70.1797 43.4426 70.0879 43.5576C69.9703 43.7051 69.868 43.8613 69.7832 44.001C69.6122 44.2827 69.4324 44.6316 69.2471 45.0195C69.2235 45.069 69.2001 45.12 69.1758 45.1719L68.1016 42.6387L63.2422 57.8828C63.2348 57.8643 63.2296 57.8447 63.2217 57.8262L63.2139 57.8076L63.2051 57.7891L63.1328 57.6416C62.95 57.2982 62.6716 56.9676 62.2764 56.7246C61.8334 56.4524 61.3697 56.3673 60.9795 56.3672C60.506 56.3672 60.0659 56.4876 59.6787 56.6895L59.5156 56.7812C59 57.0928 58.6107 57.5362 58.3594 58.0576L58.3418 58.0947L58.3252 58.1328C58.2213 58.3749 58.1218 58.6125 58.0254 58.8438C58.0267 58.6464 58.0085 58.4424 57.96 58.2363L57.9102 58.0576C57.7675 57.6002 57.477 57.1229 56.9746 56.7832C56.8039 56.6678 56.6291 56.583 56.457 56.5205L54.792 51.624C55.6548 49.6252 56.5023 47.7778 57.334 46.0811C57.4003 45.9473 57.4631 45.8183 57.5137 45.7031C57.5363 45.6516 57.6119 45.4791 57.667 45.2715L57.6689 45.2725C57.6793 45.234 57.6876 45.1945 57.6963 45.1553C57.6968 45.1531 57.6978 45.1506 57.6982 45.1484L57.6973 45.1475C57.7919 44.7166 57.7848 44.2422 57.6182 43.7705H57.6191C57.6174 43.7655 57.6151 43.7599 57.6133 43.7549C57.612 43.7512 57.6107 43.7468 57.6094 43.7432H57.6084C57.4472 43.2982 57.1456 42.8538 56.6602 42.542C56.1856 42.2374 55.6875 42.1563 55.2939 42.1562C54.8045 42.1564 54.3609 42.291 53.9863 42.4941C53.4463 42.7841 53.0167 43.2244 52.7412 43.7783C52.6193 44.0183 52.4978 44.2642 52.374 44.5146L50.2773 38.3496C49.7379 36.8662 49.1986 35.9051 48.6592 35.4668C48.1535 34.9949 47.412 34.7589 46.4346 34.7588C46.3334 34.7588 46.2822 34.6574 46.2822 34.4551C46.2822 34.2528 46.3334 34.1514 46.4346 34.1514C46.8388 34.1514 47.1425 34.1685 47.3447 34.2021C47.5807 34.2358 47.8843 34.27 48.2549 34.3037H50.126C52.3851 34.3037 54.2235 34.2866 55.6396 34.2529C57.0552 34.1855 58.1001 34.1514 58.7744 34.1514C58.8755 34.1514 58.9267 34.2528 58.9268 34.4551C58.9268 34.6574 58.8756 34.7588 58.7744 34.7588C57.4934 34.7589 56.6668 35.1294 56.2959 35.8711C55.925 36.5792 55.9933 37.7097 56.499 39.2607L62.2568 56.3916L69.3457 34.1514C69.4133 34.0504 69.5992 34 69.9023 34ZM19.7109 34.1514C20.1491 34.1514 20.4696 34.3544 20.6719 34.7588C20.9079 35.1297 21.4305 35.804 22.2393 36.7812L32.4023 48.4961C31.1745 50.0188 30.0156 51.6311 28.9277 53.333L16.9287 39.6797V59.3389C16.9287 61.1259 17.3002 62.5426 18.042 63.5879C18.7837 64.633 19.8121 65.1562 21.127 65.1562C21.1943 65.1564 21.2285 65.257 21.2285 65.459C21.2285 65.6612 21.1943 65.7626 21.127 65.7627C20.3854 65.7627 19.6098 65.7456 18.8008 65.7119C18.0253 65.6782 17.1648 65.6611 16.2207 65.6611C15.2094 65.6611 14.2149 65.6782 13.2373 65.7119C12.2932 65.7456 11.4157 65.7627 10.6064 65.7627C10.5056 65.7624 10.4551 65.661 10.4551 65.459C10.4551 65.2572 10.5057 65.1566 10.6064 65.1562C12.09 65.1562 13.2537 64.633 14.0967 63.5879C14.9733 62.5426 15.4121 61.1259 15.4121 59.3389V37.9609C14.3289 36.7648 13.402 35.95 12.6299 35.5176C11.7871 35.0119 10.9444 34.7589 10.1016 34.7588C10.0341 34.7588 10 34.6574 10 34.4551C10 34.2528 10.0341 34.1514 10.1016 34.1514C10.7758 34.1514 11.4669 34.1684 12.1748 34.2021C12.8829 34.2359 13.5405 34.2529 14.1475 34.2529C15.3613 34.2529 16.4577 34.2359 17.4355 34.2021C18.4129 34.1684 19.1716 34.1514 19.7109 34.1514ZM41.2061 64.4189C40.6666 64.8062 40.144 65.1736 39.6377 65.5205L32.457 57.3496C32.6139 57.0846 32.7752 56.8193 32.9395 56.5527L32.9404 56.5537C33.8443 55.0897 34.7967 53.7076 35.7939 52.4043L39.7393 56.9521V47.9873C40.2346 47.5311 40.723 47.1182 41.2061 46.749V64.4189ZM58.7178 62.3154C58.653 62.4078 58.5847 62.4957 58.5195 62.584V62.583C58.5846 62.4946 58.6531 62.4067 58.7178 62.3145V62.3154ZM60.7686 60.8125C60.8055 60.7198 60.8423 60.6255 60.8809 60.5303L61.1602 59.8516C61.0202 60.1854 60.8906 60.5064 60.7686 60.8125ZM59.3662 60.5566C59.4567 60.3277 59.552 60.0907 59.6523 59.8467L59.6699 59.8047C59.5633 60.0638 59.4619 60.3145 59.3662 60.5566ZM61.4854 58.5654C61.4932 58.5839 61.498 58.6038 61.5039 58.623C61.498 58.604 61.4931 58.5847 61.4854 58.5664C61.4807 58.556 61.4748 58.546 61.4697 58.5361C61.4747 58.5458 61.4807 58.5552 61.4854 58.5654ZM60.9795 58.2539C61.0404 58.254 61.0969 58.2604 61.1484 58.2734C61.174 58.2799 61.1984 58.2881 61.2217 58.2979L61.1475 58.2744C61.0961 58.2616 61.0401 58.2549 60.9795 58.2549C60.9373 58.2549 60.895 58.2577 60.8535 58.2637V58.2627C60.8949 58.2568 60.9373 58.2539 60.9795 58.2539ZM33.6592 49.9443C33.5978 50.0216 33.5366 50.0991 33.4756 50.1768C33.5366 50.099 33.5968 50.0206 33.6582 49.9434L33.6592 49.9443ZM72.2295 44.4922C72.1988 44.4886 72.1664 44.4873 72.1328 44.4873C72.0952 44.4873 72.0577 44.489 72.0205 44.4941C72.0577 44.4889 72.0952 44.4863 72.1328 44.4863L72.2295 44.4922ZM55.8633 44.4834V44.4844C55.8574 44.4532 55.8489 44.4226 55.8379 44.3926V44.3916C55.8488 44.4213 55.8574 44.4525 55.8633 44.4834ZM54.6328 44.3389C54.6377 44.334 54.6424 44.329 54.6475 44.3242L54.7402 44.2451C54.7018 44.2738 54.6665 44.3056 54.6328 44.3389ZM40.0586 43.6465C39.9523 43.7211 39.8456 43.7965 39.7393 43.874V43.873C39.8455 43.7954 39.9524 43.7201 40.0586 43.6455L40.334 43.459C40.2412 43.52 40.1493 43.5827 40.0586 43.6465ZM45.5566 34.1514C45.6238 34.1518 45.6572 34.2533 45.6572 34.4551C45.6572 34.6569 45.6238 34.7583 45.5566 34.7588C44.2079 34.7588 43.1447 35.298 42.3691 36.377C41.5938 37.4222 41.2061 38.8391 41.2061 40.626V40.8477C40.698 41.0711 40.209 41.3243 39.7393 41.6064V40.626C39.7393 38.839 39.3687 37.4222 38.627 36.377C37.8852 35.2982 36.8568 34.7588 35.542 34.7588C35.4746 34.7588 35.4404 34.6574 35.4404 34.4551C35.4404 34.2528 35.4746 34.1514 35.542 34.1514C36.2837 34.1514 37.0429 34.1855 37.8184 34.2529C38.6274 34.2866 39.5043 34.3037 40.4482 34.3037C41.3585 34.3037 42.2524 34.2866 43.1289 34.2529C44.0054 34.1855 44.815 34.1514 45.5566 34.1514Z" fill="white"/>
<path d="M45.8769 43.1393C46.2836 43.1509 46.7746 43.4269 47.3497 43.9672C47.5704 44.1821 47.7653 44.4318 47.9338 44.7164C48.201 45.1754 48.346 45.7683 48.3692 46.4945C48.375 47.1858 48.2266 48.0922 47.9246 49.2134C47.7387 49.9104 47.5035 50.6221 47.2189 51.3482C47.1492 51.5166 47.0299 51.6006 46.8614 51.6006H46.8443C46.6817 51.5658 46.6235 51.4643 46.6698 51.296C46.9487 50.5756 47.1782 49.878 47.3583 49.2041C47.6429 48.1528 47.7824 47.2989 47.7766 46.6425C47.7591 45.7829 47.5502 45.1266 47.1495 44.6735C46.6847 44.1855 46.1529 43.9414 45.5545 43.9414C45.5021 43.9414 45.2988 43.9525 44.9446 43.9758C44.5903 43.999 44.0556 44.1994 43.3411 44.577C42.6323 44.9546 41.9409 45.3846 41.267 45.8668C39.8032 46.9066 38.3279 48.2952 36.8408 50.032C35.3594 51.769 33.9793 53.6658 32.7013 55.7223C31.4291 57.773 30.3777 59.789 29.547 61.77C29.0997 62.8388 28.748 63.8438 28.4924 64.7849C28.2833 65.575 28.1439 66.319 28.0742 67.0162C27.8303 69.8509 28.6992 71.268 30.6801 71.268C30.733 71.268 31.0088 71.2568 31.5074 71.2336C32.0128 71.2104 32.8409 70.9635 33.991 70.4929C35.1412 70.0224 36.2857 69.4675 37.4242 68.8286C40.1349 67.3316 43.5239 64.9797 47.5917 61.7749C47.7342 61.2779 47.9098 60.704 48.1168 60.0534C48.657 58.3863 49.2494 56.7686 49.8942 55.2002C51.4453 51.337 52.8656 48.1442 54.1553 45.623C54.2482 45.4372 54.3877 45.2948 54.5735 45.1961C54.7012 45.1264 54.829 45.0917 54.9567 45.0917C55.2181 45.0917 55.3867 45.1992 55.4622 45.4141C55.5029 45.5245 55.5063 45.6438 55.4714 45.7716C55.4597 45.8298 55.3953 45.9748 55.2792 46.207C53.9721 48.856 52.6301 51.8826 51.2533 55.2868C50.7596 56.5067 50.24 57.8925 49.694 59.4435C49.2699 60.6577 48.9301 61.7471 48.6745 62.7115C48.1632 64.6228 48.1022 65.7234 48.4914 66.0138C48.5437 66.0545 48.6076 66.0753 48.6831 66.0753C49.3013 66.0751 50.7351 64.7119 52.9865 61.988C53.2724 61.0903 53.7492 60.0037 54.4169 58.7286C54.5214 58.537 54.6637 58.3947 54.8437 58.3018C54.9657 58.2379 55.0878 58.206 55.2098 58.206C55.4769 58.206 55.6455 58.3192 55.7152 58.5456C55.7501 58.656 55.7529 58.7753 55.7238 58.903C55.7064 58.9553 55.6835 59.0108 55.6544 59.0689C54.9399 60.4398 54.4662 61.5579 54.2339 62.4234C53.9085 63.7596 53.9813 64.5383 54.4519 64.7591C54.5331 64.7938 54.623 64.8113 54.7215 64.8113C55.1746 64.8113 55.8196 64.4334 56.6561 63.6782C57.1557 63.2193 57.6495 62.6443 58.1375 61.953C58.4338 61.0758 58.8492 60.0182 59.3836 58.7808C59.4766 58.5892 59.6104 58.4413 59.7847 58.3368C59.9299 58.2497 60.0811 58.206 60.2379 58.206C60.4643 58.206 60.6213 58.3018 60.7084 58.4934C60.7606 58.6154 60.7662 58.7548 60.7256 58.9116L60.6906 59.0167C59.9006 60.8348 59.3692 62.2554 59.0962 63.2777C58.7245 64.6601 58.8057 65.3511 59.34 65.3512C59.6944 65.3512 60.2117 65.0786 60.8914 64.5325C61.513 64.0271 62.0852 63.5097 62.608 62.9811C63.1308 62.4467 63.5026 62.034 63.7233 61.7436C63.7245 61.7421 63.7258 61.7407 63.727 61.7393C63.8323 61.4458 63.944 61.1337 64.0629 60.8033C67.6008 50.9971 69.6431 45.9339 70.1892 45.6144C70.3227 45.5389 70.4595 45.5013 70.5989 45.5013C70.8485 45.5014 71.0138 45.6061 71.0951 45.8152C71.1357 45.9255 71.1385 46.0476 71.1037 46.1812C71.0921 46.2276 71.0747 46.277 71.0515 46.3292C69.9419 48.7518 68.086 53.5386 65.4835 60.6896C66.8892 58.674 68.2224 57.6663 69.4829 57.6661C70.1103 57.6661 70.6249 57.8811 71.0257 58.311C71.3568 58.6653 71.5483 59.1446 71.6006 59.7487C71.6412 60.2077 71.583 60.7306 71.4261 61.3173L71.2959 61.7442C71.7373 61.7268 72.167 61.715 72.5851 61.7092C73.1834 61.6917 73.75 61.6688 74.2845 61.6398C74.3542 61.6398 74.4124 61.6661 74.4589 61.7184C74.5052 61.7648 74.5143 61.8344 74.4853 61.9272C74.4446 62.0899 74.3337 62.1828 74.1536 62.206C73.6367 62.2351 73.0671 62.2586 72.4456 62.276C71.9984 62.2818 71.5425 62.2964 71.0779 62.3196C70.3343 64.0972 69.3551 65.4303 68.141 66.3191C67.322 66.9057 66.5408 67.1991 65.7973 67.1992C65.2281 67.1992 64.8098 67.0104 64.5426 66.6329C64.3277 66.3309 64.2924 65.9097 64.4376 65.3696C64.4899 65.1546 64.5744 64.9217 64.6906 64.6719C65.2134 63.6032 66.0237 62.8623 67.1215 62.4498C67.9696 62.1303 68.8878 61.9299 69.8754 61.8486C69.945 61.657 70.0033 61.4743 70.0498 61.3001C70.1601 60.8761 70.2032 60.5071 70.18 60.1934C70.1452 59.8276 70.0381 59.5514 69.8582 59.3655C69.5271 59.0286 69.1782 58.8601 68.8123 58.86C68.6845 58.86 68.4577 58.9093 68.1324 59.0081C67.8129 59.1069 67.4036 59.412 66.9041 59.9232C66.4103 60.4285 65.9629 60.9745 65.5621 61.5611C65.1671 62.1421 64.8647 62.6303 64.6556 63.0253C64.2432 64.1755 63.9817 64.919 63.8713 65.256C63.8016 65.4477 63.6823 65.6016 63.5139 65.7178C63.3513 65.8397 63.1771 65.9008 62.9912 65.9008C62.7937 65.9008 62.6487 65.8252 62.5558 65.6742C62.4744 65.5464 62.4599 65.3897 62.5122 65.2038C62.5558 65.0411 62.8109 64.3051 63.2774 62.9958C63.1877 63.0894 63.0936 63.1903 62.9912 63.2949C62.4393 63.8584 61.8408 64.4043 61.196 64.9329C60.5629 65.4673 59.9503 65.889 59.3578 66.1969C59.0325 66.3653 58.7447 66.4493 58.4949 66.4493C58.28 66.4493 58.0387 66.3536 57.7714 66.1619C57.5101 65.97 57.4289 65.2903 57.5276 64.1228C57.5683 63.8788 57.6293 63.6028 57.7106 63.2949C56.7114 64.4278 55.7149 65.1421 54.7215 65.4384C54.4602 65.5139 54.2221 65.552 54.0072 65.552C53.6006 65.552 53.2316 65.3834 52.9005 65.0465C52.5998 64.7406 52.5391 64.0873 52.7175 63.0867C51.6967 64.2812 50.8463 65.1791 50.1644 65.7786C49.0434 66.7777 48.2242 67.286 47.7072 67.3036H47.6549C46.65 67.3036 46.5569 65.7292 47.3737 62.5794C43.5094 65.5969 40.2602 67.8344 37.625 69.2904C35.2142 70.6498 33.1282 71.5354 31.368 71.9479C30.8162 72.0757 30.2993 72.1395 29.8172 72.1395C29.4338 72.1395 28.9662 72.0729 28.4144 71.9393C27.8684 71.8057 27.4031 71.3584 27.0197 70.5974C26.6363 69.8421 26.5148 68.7207 26.6542 67.2336C26.7356 66.4726 26.8923 65.6652 27.1247 64.8113C27.8973 61.9241 29.3641 58.7402 31.5252 55.2604C32.8845 53.0762 34.3659 51.0573 35.9693 49.2041C37.5783 47.3454 39.1903 45.8526 40.8052 44.7257C41.4791 44.2551 42.2142 43.8654 43.01 43.5575C43.7478 43.2671 44.474 43.1221 45.1885 43.1221C45.2407 43.1221 45.4703 43.1276 45.8769 43.1393ZM69.6401 62.424C68.7688 62.5112 67.9698 62.6915 67.2437 62.9645C66.5234 63.2317 65.9595 63.65 65.5529 64.2193C65.3032 64.5793 65.1352 64.9193 65.0481 65.2388C64.9842 65.4827 64.9898 65.6597 65.0652 65.77C65.1698 65.9269 65.3411 66.0052 65.5793 66.0052C65.893 66.0052 66.2564 65.9185 66.6688 65.7442C67.8945 65.233 68.885 64.1261 69.6401 62.424Z" fill="#7F53E6"/>
</svg>
