<svg width="822" height="347" viewBox="0 0 822 347" fill="none" xmlns="http://www.w3.org/2000/svg">
<path d="M782.243 106.01C794.617 105.843 806.93 107.767 818.667 111.701L811.333 143.475C803.05 139.316 793.869 137.274 784.609 137.533C775.869 137.031 767.14 138.704 759.201 142.406C756.141 144.294 753.488 146.777 751.398 149.709C749.309 152.641 747.827 155.964 747.037 159.48C744.28 171.16 743.084 183.157 743.48 195.154C743.095 206.991 744.244 218.829 746.898 230.369C747.68 233.821 749.153 237.077 751.228 239.941C753.302 242.804 755.934 245.215 758.966 247.027C766.76 250.618 775.311 252.248 783.876 251.775C794.67 252.144 805.365 249.603 814.848 244.417L821.947 276.912C809.262 281.731 795.779 284.086 782.216 283.853C771.375 284.682 760.483 283.141 750.293 279.338C740.103 275.535 730.856 269.56 723.192 261.824L723.15 261.796C708.677 242.756 701.697 219.039 703.541 195.167C703.541 135.729 729.775 106.01 782.243 106.01ZM536.076 141.114H491.403V281.563H451.658V141.114H407V108.383H536.076V141.114ZM622.029 108.383C657.964 108.383 675.928 123.801 675.919 154.635C676.476 163.909 673.804 173.089 668.362 180.607C665.721 183.766 662.433 186.32 658.724 188.097C655.014 189.874 650.967 190.831 646.856 190.906C651.9 190.901 656.893 191.908 661.544 193.864C666.195 195.821 670.409 198.69 673.939 202.302C680.724 210.435 684.142 220.868 683.488 231.452C683.488 264.767 663.325 281.424 622.998 281.424L560.086 281.563V108.383H622.029ZM634.609 208.451C629.579 206.981 624.344 206.339 619.109 206.55H598.352V251.608H619.109C624.38 251.826 629.652 251.188 634.72 249.72C636.334 249.184 637.819 248.317 639.082 247.175C640.345 246.033 641.357 244.639 642.055 243.084C643.688 238.605 644.412 233.843 644.186 229.078C644.414 224.319 643.689 219.561 642.055 215.087C641.345 213.521 640.315 212.121 639.033 210.978C637.751 209.835 636.244 208.974 634.609 208.451ZM630.858 139.324C626.711 137.956 622.35 137.353 617.988 137.547H598.352V178.829H617.726C622.176 179.033 626.626 178.421 630.858 177.025C632.243 176.495 633.504 175.686 634.563 174.648C635.623 173.609 636.458 172.363 637.018 170.987C638.388 166.862 638.989 162.518 638.789 158.175C638.991 153.836 638.39 149.496 637.018 145.376C636.459 143.998 635.624 142.749 634.564 141.708C633.505 140.667 632.243 139.856 630.858 139.324Z" fill="white"/>
<path d="M181.245 246.755C194.601 237.205 201.548 232.225 220.268 236.719C253.5 246.784 285.421 260.776 315.361 278.399C331.589 287.616 347.075 298.092 361.676 309.729C370.852 317.496 377.099 324.853 372.382 333.107C371.022 335.217 369.177 336.97 367.004 338.22C364.83 339.47 362.391 340.18 359.888 340.291C324.915 346.32 253.409 346.774 206.869 346.99H195.969L192.285 347C121.5 346.903 33.03 343.607 17.9834 341.598C15.8293 341.306 12.8564 340.226 12.8564 337.59C12.8565 335.43 14.7521 334.349 16.1953 333.82C16.443 333.733 18.6082 333.096 19.4268 332.859C78.1311 314.251 132.965 285.073 181.245 246.755ZM171.605 2.89095C172.952 1.14091 175.364 -0.890374 177.637 0.416345C178.359 0.95444 178.899 1.70216 179.185 2.55795C179.47 3.41375 179.486 4.33707 179.231 5.20248C179.231 5.46176 178.638 7.67701 178.423 8.55209C165.135 68.8635 162.913 131.099 171.864 192.209C173.437 208.576 174.265 217.057 161.018 231.101C135.722 254.925 107.694 275.652 77.5234 292.843C61.4543 302.323 44.6728 310.533 27.332 317.399C22.5955 319.353 17.5701 320.51 12.458 320.824C10.3067 320.98 8.15569 320.515 6.25879 319.486C4.36187 318.456 2.7981 316.903 1.75195 315.011C0.60084 312.779 2.91801e-05 310.302 0 307.789C0 305.276 0.600749 302.799 1.75195 300.567C14.0737 267.163 49.5203 204.849 72.5264 164.293C74.8815 160.145 77.3079 155.913 79.8066 151.599C115.285 90.1604 162.364 14.9481 171.605 2.89095ZM202.711 2.05892C205.213 2.18415 207.65 2.90819 209.816 4.17123C211.982 5.43426 213.815 7.19955 215.162 9.31869C237.867 36.6837 273.981 98.5982 297.472 138.895C299.863 143.022 302.319 147.245 304.796 151.567C340.102 213.146 381.493 291.611 387.277 305.677C388.107 307.719 388.656 310.841 386.395 312.16C385.909 312.449 385.354 312.601 384.789 312.602C383.545 312.506 382.368 311.992 381.45 311.144C381.235 310.96 379.62 309.383 378.984 308.767C333.561 267.08 280.95 234.037 223.725 211.255C208.807 204.438 201.031 200.906 195.56 182.389C187.636 148.485 183.753 113.758 183.992 78.9359C183.838 60.2343 185.137 41.5489 187.88 23.0501C190.034 11.1665 193.265 2.05908 202.711 2.05892Z" fill="white"/>
</svg>
